<?xml version="1.0" encoding="UTF-8" standalone="no"?>
<svg
   version="1.1"
   x="0px"
   y="0px"
   viewBox="0 0 23.028 21.782"
   enable-background="new 0 0 24 24"
   xml:space="preserve"
   id="svg7"
   sodipodi:docname="noun-chart-gantt-1254419.svg"
   width="23.028"
   height="21.782"
   inkscape:version="1.3.2 (091e20e, 2023-11-25, custom)"
   xmlns:inkscape="http://www.inkscape.org/namespaces/inkscape"
   xmlns:sodipodi="http://sodipodi.sourceforge.net/DTD/sodipodi-0.dtd"
   xmlns="http://www.w3.org/2000/svg"
   xmlns:svg="http://www.w3.org/2000/svg"><defs
     id="defs7" /><sodipodi:namedview
     id="namedview7"
     pagecolor="#ffffff"
     bordercolor="#000000"
     borderopacity="0.25"
     inkscape:showpageshadow="2"
     inkscape:pageopacity="0.0"
     inkscape:pagecheckerboard="0"
     inkscape:deskcolor="#d1d1d1"
     inkscape:zoom="27.366667"
     inkscape:cx="11.528624"
     inkscape:cy="13.903776"
     inkscape:window-width="1920"
     inkscape:window-height="1017"
     inkscape:window-x="-8"
     inkscape:window-y="-8"
     inkscape:window-maximized="1"
     inkscape:current-layer="svg7" /><g
     id="g6"
     transform="translate(-0.486,-1.109)"
     style="fill:#333333"><path
       d="M 22.864,22.891 H 1.136 c -0.359,0 -0.65,-0.291 -0.65,-0.65 V 1.759 c 0,-0.359 0.291,-0.65 0.65,-0.65 0.359,0 0.65,0.291 0.65,0.65 v 19.832 h 21.078 c 0.359,0 0.65,0.291 0.65,0.65 0,0.359 -0.291,0.65 -0.65,0.65 z"
       id="path1"
       style="fill:#333333" /><path
       d="m 9.927,5.788 h -6.49 c -0.359,0 -0.65,-0.291 -0.65,-0.65 V 4.179 c 0,-0.359 0.291,-0.65 0.65,-0.65 h 6.49 c 0.359,0 0.65,0.291 0.65,0.65 v 0.958 c 0,0.36 -0.291,0.651 -0.65,0.651 z"
       id="path2"
       style="fill:#333333" /><path
       d="m 20.813,9.525 h -11 c -0.359,0 -0.65,-0.291 -0.65,-0.65 V 7.917 c 0,-0.359 0.291,-0.65 0.65,-0.65 h 11 c 0.359,0 0.65,0.291 0.65,0.65 v 0.958 c -0.001,0.359 -0.292,0.65 -0.65,0.65 z"
       id="path3"
       style="fill:#333333" /><path
       d="m 14.302,17.001 h -8.49 c -0.359,0 -0.65,-0.291 -0.65,-0.65 v -0.958 c 0,-0.359 0.291,-0.65 0.65,-0.65 h 8.49 c 0.359,0 0.65,0.291 0.65,0.65 v 0.958 c 0,0.359 -0.291,0.65 -0.65,0.65 z"
       id="path4"
       style="fill:#333333" /><path
       d="m 18.906,13.263 h -6.344 c -0.359,0 -0.65,-0.291 -0.65,-0.65 v -0.958 c 0,-0.359 0.291,-0.65 0.65,-0.65 h 6.344 c 0.359,0 0.65,0.291 0.65,0.65 v 0.958 c 0,0.359 -0.291,0.65 -0.65,0.65 z"
       id="path5"
       style="fill:#333333" /><path
       d="m 19.25,20.739 h -7.193 c -0.359,0 -0.65,-0.291 -0.65,-0.65 v -0.958 c 0,-0.359 0.291,-0.65 0.65,-0.65 h 7.193 c 0.359,0 0.65,0.291 0.65,0.65 v 0.958 c 0,0.359 -0.291,0.65 -0.65,0.65 z"
       id="path6"
       style="fill:#333333" /></g><text
     x="-0.486"
     y="37.890999"
     fill="#000000"
     font-size="5px"
     font-weight="bold"
     font-family="'Helvetica Neue', Helvetica, Arial-Unicode, Arial, Sans-serif"
     id="text6">Created by Atif Arshad</text><text
     x="-0.486"
     y="42.890999"
     fill="#000000"
     font-size="5px"
     font-weight="bold"
     font-family="'Helvetica Neue', Helvetica, Arial-Unicode, Arial, Sans-serif"
     id="text7">from the Noun Project</text></svg>
